<?xml version="1.0" encoding="utf-8"?>
<!-- Generator: Adobe Illustrator 17.0.0, SVG Export Plug-In . SVG Version: 6.00 Build 0)  -->
<!DOCTYPE svg PUBLIC "-//W3C//DTD SVG 1.1//EN" "http://www.w3.org/Graphics/SVG/1.1/DTD/svg11.dtd">
<svg version="1.1" id="Layer_1" xmlns="http://www.w3.org/2000/svg" xmlns:xlink="http://www.w3.org/1999/xlink" x="0px" y="0px"
	 width="140px" height="110px" viewBox="0 0 140 110" enable-background="new 0 0 140 110" xml:space="preserve">
<g>
	<g>
		<path fill="#49525E" d="M76.538,3.583H50.463c-2.947,0-5.358,2.455-5.358,5.456v93.836c0,3.001,2.411,5.456,5.358,5.456h26.076
			c2.947,0,5.359-2.454,5.359-5.456V9.039C81.897,6.039,79.486,3.583,76.538,3.583z M63.5,99.907
			c-5.727,0-10.387-4.744-10.387-10.575c0-5.831,4.659-10.576,10.387-10.576c5.728,0,10.388,4.745,10.388,10.576
			C73.888,95.163,69.228,99.907,63.5,99.907z M77.075,54.139c0,2.001-1.607,3.637-3.572,3.637H53.5
			c-1.965,0-3.572-1.636-3.572-3.637V16.556c0-2,1.607-3.637,3.572-3.637h20.003c1.965,0,3.572,1.637,3.572,3.637V54.139z
			 M65.645,20.695H54.513c-0.986,0-1.786,0.815-1.786,1.819c0,1.004,0.8,1.818,1.786,1.818h11.132c0.986,0,1.786-0.814,1.786-1.818
			C67.432,21.51,66.632,20.695,65.645,20.695z M33.172,3.583H7.096c-2.947,0-5.359,2.455-5.359,5.456v93.836
			c0,3.001,2.411,5.456,5.359,5.456h26.076c2.947,0,5.358-2.454,5.358-5.456V9.039C38.529,6.039,36.119,3.583,33.172,3.583z
			 M20.133,99.907c-5.727,0-10.388-4.744-10.388-10.575c0-5.831,4.66-10.576,10.388-10.576c5.728,0,10.388,4.745,10.388,10.576
			C30.521,95.163,25.861,99.907,20.133,99.907z M33.707,54.139c0,2.001-1.607,3.637-3.573,3.637H10.132
			c-1.965,0-3.572-1.636-3.572-3.637V16.556c0-2,1.607-3.637,3.572-3.637h20.003c1.965,0,3.573,1.637,3.573,3.637V54.139z
			 M22.278,20.695H11.146c-0.986,0-1.786,0.815-1.786,1.819c0,1.004,0.8,1.818,1.786,1.818h11.133c0.986,0,1.786-0.814,1.786-1.818
			C24.064,21.51,23.265,20.695,22.278,20.695z M22.278,29.348H11.146c-0.986,0-1.786,0.813-1.786,1.818
			c0,1.004,0.8,1.819,1.786,1.819h11.133c0.986,0,1.786-0.814,1.786-1.819C24.064,30.162,23.265,29.348,22.278,29.348z
			 M22.278,38.001H11.146c-0.986,0-1.786,0.815-1.786,1.819c0,1.004,0.8,1.818,1.786,1.818h11.133c0.986,0,1.786-0.814,1.786-1.818
			C24.064,38.815,23.265,38.001,22.278,38.001z M137.809,98.091L124.034,5.309c-0.441-2.967-3.185-5.027-6.099-4.579L92.151,4.699
			c-2.914,0.448-4.937,3.243-4.497,6.209l13.776,92.782c0.441,2.967,3.185,5.028,6.099,4.579l25.783-3.969
			C136.225,103.852,138.25,101.058,137.809,98.091z M103.109,57.82c-1.943,0.299-3.772-1.075-4.067-3.052l-5.516-37.161
			c-0.294-1.978,1.056-3.841,2.998-4.14l19.778-3.044c1.943-0.298,3.772,1.075,4.066,3.053l5.518,37.161
			c0.294,1.978-1.056,3.841-2.998,4.14L103.109,57.82z M125.991,93.776c-1.647,2.274-4.065,3.759-6.808,4.181
			c-0.517,0.08-1.043,0.12-1.563,0.12c-5.088,0-9.498-3.867-10.26-8.996c-0.415-2.793,0.264-5.584,1.91-7.857
			c1.647-2.274,4.065-3.759,6.808-4.18c0.518-0.08,1.043-0.12,1.563-0.12c5.088,0,9.499,3.868,10.26,8.996
			C128.316,88.712,127.638,91.503,125.991,93.776z M98.577,20.385l11.008-1.694c0.975-0.15,1.646-1.077,1.499-2.07
			c-0.148-0.993-1.055-1.677-2.033-1.526l-11.008,1.694c-0.975,0.15-1.646,1.077-1.499,2.07c0.134,0.901,0.895,1.547,1.764,1.547
			C98.396,20.406,98.486,20.4,98.577,20.385z M116.478,22.534L99.289,25.18c-0.975,0.15-1.646,1.077-1.499,2.07
			c0.133,0.901,0.894,1.547,1.763,1.547c0.089,0,0.179-0.007,0.269-0.021l17.189-2.645c0.975-0.15,1.647-1.077,1.499-2.07
			C118.363,23.068,117.455,22.382,116.478,22.534z"/>
	</g>
</g>
</svg>
