<?xml version="1.0" encoding="utf-8"?>
<!-- Generator: Adobe Illustrator 17.0.0, SVG Export Plug-In . SVG Version: 6.00 Build 0)  -->
<!DOCTYPE svg PUBLIC "-//W3C//DTD SVG 1.1//EN" "http://www.w3.org/Graphics/SVG/1.1/DTD/svg11.dtd">
<svg version="1.1" id="Layer_1" xmlns="http://www.w3.org/2000/svg" xmlns:xlink="http://www.w3.org/1999/xlink" x="0px" y="0px"
	 width="80px" height="80px" viewBox="0 0 80 80" enable-background="new 0 0 80 80" xml:space="preserve">
<circle fill="#FAFCFA" cx="40" cy="40" r="38.75"/>
<path fill="#56BB67" d="M40,0C17.909,0,0,17.909,0,40s17.909,40,40,40s40-17.909,40-40S62.091,0,40,0z M40,78.75
	C18.599,78.75,1.25,61.401,1.25,40S18.599,1.25,40,1.25S78.75,18.599,78.75,40S61.401,78.75,40,78.75z"/>
<g>
	<g>
		<path fill="#56BB67" d="M48.933,47.149c0.18,0.18,0.415,0.268,0.649,0.268c0.235,0,0.47-0.09,0.649-0.268
			c0.358-0.358,0.358-0.939,0-1.297l-9.581-9.579c0,0,0,0-0.002-0.002L40,35.623l-0.648,0.648c0,0,0,0-0.002,0.002l-9.582,9.58
			c-0.358,0.358-0.358,0.939,0,1.297s0.939,0.358,1.297,0l8.016-8.015v16.161c0,0.506,0.411,0.917,0.917,0.917
			s0.917-0.411,0.917-0.917V39.134L48.933,47.149z"/>
		<path fill="#56BB67" d="M58.01,30.369c-2.259-6.354-8.222-10.585-15.013-10.585c-6.4,0-12.156,3.849-14.646,9.684
			c-1.173-0.543-2.448-0.826-3.743-0.826c-4.936,0-8.954,4.011-8.963,8.945c-2.567,1.963-4.086,5.013-4.086,8.257
			c0,5.717,4.664,10.369,10.551,10.371c0.066,0,0.132,0.002,0.191,0.002c0.062,0,0.117,0,0.161-0.004h9.67
			c0.506,0,0.917-0.411,0.917-0.917s-0.411-0.917-0.917-0.917h-9.718c-0.09,0.006-0.184,0.002-0.273,0l-0.187-0.002
			c-4.719,0-8.559-3.828-8.559-8.534c0-2.813,1.387-5.45,3.71-7.05l0.422-0.42l-0.046-0.767c0-3.93,3.198-7.128,7.128-7.128
			c1.317,0,2.611,0.371,3.741,1.07l0.97,0.602l0.378-1.079c1.978-5.653,7.321-9.449,13.301-9.449c6.173,0,11.574,3.951,13.44,9.833
			l0.171,0.538l0.558,0.09c5.468,0.884,9.439,5.545,9.439,11.083c0,6.185-5.044,11.216-11.242,11.216h-7.496
			c-0.506,0-0.917,0.411-0.917,0.917s0.411,0.917,0.917,0.917h7.496c7.211,0,13.077-5.855,13.077-13.051
			C68.44,36.906,64.086,31.613,58.01,30.369z"/>
	</g>
</g>
</svg>
