<?xml version="1.0" encoding="utf-8"?>
<!-- Generator: Adobe Illustrator 17.0.0, SVG Export Plug-In . SVG Version: 6.00 Build 0)  -->
<!DOCTYPE svg PUBLIC "-//W3C//DTD SVG 1.1//EN" "http://www.w3.org/Graphics/SVG/1.1/DTD/svg11.dtd">
<svg version="1.1" id="Layer_1" xmlns="http://www.w3.org/2000/svg" xmlns:xlink="http://www.w3.org/1999/xlink" x="0px" y="0px"
	 width="140px" height="110px" viewBox="0 0 140 110" enable-background="new 0 0 140 110" xml:space="preserve">
<path fill="#49525E" d="M129.596,34.766H10.405c-6.05,0-6.352,3.023-6.024,6.716l5.423,60.756c0.328,3.695,1.182,6.717,7.223,6.717
	h105.946c6.161,0,6.891-3.023,7.22-6.716l5.424-60.756C135.946,37.789,135.645,34.766,129.596,34.766z M125.222,19.928
	c-0.729-2.967-4.304-5.396-7.947-5.396H72.5c-3.641,0-8.733-2.142-11.311-4.759l-3.915-3.97c-2.58-2.618-7.669-4.76-11.31-4.76
	H24.571c-3.641,0-6.95,3.016-7.351,6.704L15.3,25.324h111.246L125.222,19.928z"/>
</svg>
