<?xml version="1.0" encoding="utf-8"?>
<!-- Generator: Adobe Illustrator 17.0.0, SVG Export Plug-In . SVG Version: 6.00 Build 0)  -->
<!DOCTYPE svg PUBLIC "-//W3C//DTD SVG 1.1//EN" "http://www.w3.org/Graphics/SVG/1.1/DTD/svg11.dtd">
<svg version="1.1" id="Layer_1" xmlns="http://www.w3.org/2000/svg" xmlns:xlink="http://www.w3.org/1999/xlink" x="0px" y="0px"
	 width="80px" height="80px" viewBox="0 0 80 80" enable-background="new 0 0 80 80" xml:space="preserve">
<circle fill="#FFFFFF" cx="40" cy="40" r="38.75"/>
<g>
	<path fill="#C39E45" d="M40,0C17.909,0,0,17.909,0,40s17.909,40,40,40s40-17.909,40-40S62.091,0,40,0z M40,78.75
		C18.599,78.75,1.25,61.401,1.25,40S18.599,1.25,40,1.25S78.75,18.599,78.75,40S61.401,78.75,40,78.75z"/>
	<g>
		<g>
			<path fill="#C39E45" d="M56.897,15.25H23.103c-1.922,0-3.485,1.537-3.485,3.427v42.646c0,1.89,1.563,3.427,3.485,3.427h27.616
				c0.322,0,0.63-0.126,0.858-0.349l8.45-8.308c0.228-0.224,0.356-0.527,0.356-0.843V18.677
				C60.382,16.787,58.819,15.25,56.897,15.25z M51.933,60.677v-3.194c0-0.574,0.475-1.041,1.059-1.041h3.248L51.933,60.677z
				 M57.955,54.056h-4.964c-1.922,0-3.485,1.537-3.485,3.427v4.881H23.103c-0.584,0-1.059-0.467-1.059-1.041V24.75h35.911V54.056z
				 M57.955,22.364H22.044v-3.687c0-0.574,0.475-1.041,1.059-1.041h33.794c0.584,0,1.059,0.467,1.059,1.041L57.955,22.364
				L57.955,22.364z M27.04,31.751h15.889c0.67,0,1.213-0.534,1.213-1.193s-0.543-1.193-1.213-1.193H27.04
				c-0.67,0-1.213,0.534-1.213,1.193C25.827,31.217,26.37,31.751,27.04,31.751z M47.783,31.751h4.102
				c0.67,0,1.213-0.534,1.213-1.193s-0.543-1.193-1.213-1.193h-4.102c-0.67,0-1.213,0.534-1.213,1.193S47.113,31.751,47.783,31.751z
				 M27.04,37.557h15.889c0.67,0,1.213-0.534,1.213-1.193s-0.543-1.193-1.213-1.193H27.04c-0.67,0-1.213,0.534-1.213,1.193
				C25.827,37.023,26.37,37.557,27.04,37.557z M47.783,37.557h4.102c0.67,0,1.213-0.534,1.213-1.193s-0.543-1.193-1.213-1.193
				h-4.102c-0.67,0-1.213,0.534-1.213,1.193S47.113,37.557,47.783,37.557z M27.04,43.364h15.889c0.67,0,1.213-0.534,1.213-1.193
				s-0.543-1.193-1.213-1.193H27.04c-0.67,0-1.213,0.534-1.213,1.193C25.827,42.829,26.37,43.364,27.04,43.364z M47.783,43.364
				h4.102c0.67,0,1.213-0.534,1.213-1.193s-0.543-1.193-1.213-1.193h-4.102c-0.67,0-1.213,0.534-1.213,1.193
				C46.57,42.829,47.113,43.364,47.783,43.364z M51.885,47.794H40.329c-0.67,0-1.214,0.534-1.214,1.193s0.543,1.193,1.214,1.193
				h11.556c0.67,0,1.213-0.534,1.213-1.193C53.099,48.329,52.556,47.794,51.885,47.794z"/>
		</g>
	</g>
</g>
</svg>
