<?xml version="1.0" encoding="utf-8"?>
<!-- Generator: Adobe Illustrator 17.0.0, SVG Export Plug-In . SVG Version: 6.00 Build 0)  -->
<!DOCTYPE svg PUBLIC "-//W3C//DTD SVG 1.1//EN" "http://www.w3.org/Graphics/SVG/1.1/DTD/svg11.dtd">
<svg version="1.1" id="Layer_1" xmlns="http://www.w3.org/2000/svg" xmlns:xlink="http://www.w3.org/1999/xlink" x="0px" y="0px"
	 width="80px" height="80px" viewBox="0 0 80 80" enable-background="new 0 0 80 80" xml:space="preserve">
<circle fill="#FDFEFF" cx="40" cy="40" r="38.75"/>
<path fill="#49525E" d="M40.744,41.572c5.03,0,9.11-4.136,9.111-9.244c0-5.108-4.081-9.245-9.111-9.245
	c-5.029,0-9.105,4.138-9.105,9.245C31.639,37.437,35.715,41.572,40.744,41.572z"/>
<g>
	<path fill="#49525E" d="M50.766,45.929c-1.325-1.042-2.7-1.934-4.294-2.492c-1.481-0.521-3.04-0.813-4.599-0.92l2.35,25.054
		l-3.393,4.037l-3.88-4.037l2.945-25.089c-1.702,0.058-3.413,0.334-5.019,0.916c-0.656,0.237-1.296,0.527-1.899,0.883
		c-1.056,0.627-2.029,1.386-2.947,2.213c-4.541,4.082-6.998,11.17-7.519,21.666c-0.09,1.799,1.275,3.33,3.048,3.421
		c0.056,0.004,0.109,0.006,0.165,0.006c1.701,0,3.12-1.354,3.207-3.099c0.352-7.11,1.742-12.412,4.023-15.568
		c-0.164,3.308-0.454,9.309-0.713,15.438c-0.016,0.111-0.047,0.217-0.055,0.33l-0.499,9.826c0.277,0.073,0.556,0.141,0.827,0.23
		c0.079-0.003,0.156-0.012,0.236-0.012c1.726,0,3.384,0.311,4.946,0.846c0.218-0.024,0.44-0.029,0.66-0.043
		c1.288-0.351,2.632-0.553,4.019-0.553c0.85,0,1.681,0.089,2.498,0.224c0.536-0.058,1.077-0.099,1.627-0.099
		c0.109,0,0.214,0.014,0.322,0.017c0.613-0.149,1.237-0.27,1.873-0.349c0.447-0.214,0.904-0.407,1.372-0.578l-0.311-7.193
		c-0.011-0.193-0.055-0.378-0.09-0.56c-0.186-5.333-0.788-13.23-1.134-17.519c2.329,3.162,3.641,8.409,3.783,15.465
		c0.037,1.78,1.468,3.197,3.28,3.195c1.774-0.037,3.184-1.526,3.147-3.329C58.524,57.427,55.839,49.914,50.766,45.929z"/>
	<path fill="#49525E" d="M40,0C17.909,0,0,17.909,0,40s17.909,40,40,40s40-17.909,40-40S62.091,0,40,0z M40,78.75
		C18.599,78.75,1.25,61.401,1.25,40S18.599,1.25,40,1.25S78.75,18.599,78.75,40S61.401,78.75,40,78.75z"/>
</g>
</svg>
