<?xml version="1.0" encoding="utf-8"?>
<!-- Generator: Adobe Illustrator 19.0.0, SVG Export Plug-In . SVG Version: 6.00 Build 0)  -->
<svg version="1.1" id="Capa_1" xmlns="http://www.w3.org/2000/svg" xmlns:xlink="http://www.w3.org/1999/xlink" x="0px" y="0px"
	 viewBox="-265 356.9 80.1 80.1" style="enable-background:new -265 356.9 80.1 80.1;" xml:space="preserve">
<style type="text/css">
	.st0{fill:#45B6AF;}
</style>
<g>
	<g>
		<path class="st0" d="M-244.9,370.3c6,0,10.8,4.8,10.8,10.8c0,6-4.8,10.8-10.8,10.8c-6,0-10.8-4.8-10.8-10.8
			C-255.7,375.1-250.9,370.3-244.9,370.3 M-240,394.6c7.8,0,14.1,6.3,14.1,14v11.5l-0.3,0.2c-0.7,0.3-6.9,3.3-17.5,3.3
			c-6.6,0-13.4-1.1-20.2-3.2l-0.1,0v-11.7c0-7.7,6.3-14,14-14H-240 M-244.9,369.3c-6.5,0-11.8,5.3-11.8,11.8s5.3,11.8,11.8,11.8
			s11.8-5.3,11.8-11.8S-238.4,369.3-244.9,369.3L-244.9,369.3z M-240,393.6h-10c-8.3,0-15,6.8-15,15v12.2v0.2l0.8,0.3
			c7.9,2.5,14.8,3.3,20.5,3.3c11.1,0,17.5-3.2,17.9-3.4l0.8-0.4h0.1v-12.2C-224.9,400.3-231.7,393.6-240,393.6L-240,393.6z"/>
	</g>
</g>
</svg>
