<?xml version="1.0" encoding="utf-8"?>
<!-- Generator: Adobe Illustrator 17.0.0, SVG Export Plug-In . SVG Version: 6.00 Build 0)  -->
<!DOCTYPE svg PUBLIC "-//W3C//DTD SVG 1.1//EN" "http://www.w3.org/Graphics/SVG/1.1/DTD/svg11.dtd">
<svg version="1.1" id="Layer_1" xmlns="http://www.w3.org/2000/svg" xmlns:xlink="http://www.w3.org/1999/xlink" x="0px" y="0px"
	 width="80px" height="80px" viewBox="0 0 80 80" enable-background="new 0 0 80 80" xml:space="preserve">
<circle fill="#FFFFFF" cx="40" cy="40" r="38.75"/>
<path fill="#3D97D3" d="M40,0C17.909,0,0,17.909,0,40s17.909,40,40,40s40-17.909,40-40S62.091,0,40,0z M40,78.75
	C18.599,78.75,1.25,61.401,1.25,40S18.599,1.25,40,1.25S78.75,18.599,78.75,40S61.401,78.75,40,78.75z"/>
<path fill="#3D97D3" d="M56.672,23.903H23.328c-3.069,0-5.557,2.403-5.557,5.366v21.463c0,2.963,2.488,5.366,5.557,5.366h33.344
	c3.069,0,5.557-2.403,5.557-5.366V29.269C62.229,26.305,59.741,23.903,56.672,23.903z M47.525,38.221l11.763-9.733
	c0.081,0.251,0.163,0.503,0.163,0.781v21.463c0,0.186-0.073,0.351-0.111,0.527L47.525,38.221z M56.672,26.586
	c0.185,0,0.347,0.068,0.521,0.102L40,40.917L22.807,26.688c0.174-0.034,0.337-0.102,0.521-0.102H56.672z M20.659,51.255
	c-0.038-0.176-0.11-0.338-0.11-0.524V29.269c0-0.278,0.083-0.529,0.164-0.781l11.759,9.731L20.659,51.255z M23.328,53.414
	c-0.281,0-0.536-0.078-0.792-0.154l12.048-13.294l4.513,3.733c0.259,0.217,0.582,0.325,0.904,0.325c0.321,0,0.644-0.108,0.904-0.325
	l4.513-3.733L57.464,53.26c-0.255,0.076-0.51,0.154-0.792,0.154C56.672,53.414,23.328,53.414,23.328,53.414z"/>
</svg>
