<?xml version="1.0" encoding="utf-8"?>
<!-- Generator: Adobe Illustrator 17.0.0, SVG Export Plug-In . SVG Version: 6.00 Build 0)  -->
<!DOCTYPE svg PUBLIC "-//W3C//DTD SVG 1.1//EN" "http://www.w3.org/Graphics/SVG/1.1/DTD/svg11.dtd">
<svg version="1.1" id="Layer_1" xmlns="http://www.w3.org/2000/svg" xmlns:xlink="http://www.w3.org/1999/xlink" x="0px" y="0px"
	 width="80px" height="80px" viewBox="0 0 80 80" enable-background="new 0 0 80 80" xml:space="preserve">
<circle fill="#FFFFFF" cx="40" cy="40" r="38.75"/>
<path fill="#894B9D" d="M40,0C17.909,0,0,17.909,0,40s17.909,40,40,40s40-17.909,40-40S62.091,0,40,0z M40,78.75
	C18.599,78.75,1.25,61.401,1.25,40S18.599,1.25,40,1.25S78.75,18.599,78.75,40S61.401,78.75,40,78.75z"/>
<g>
	<g>
		<path fill="#894B9D" d="M26.626,40.522l-2.605-2.591l2.198-5.287h-0.023l-0.852-0.975c0.414,0.148,0.841,0.239,1.287,0.239
			c0.447,0,0.875-0.088,1.289-0.237l-0.856,0.973h-0.02l2.199,5.287l-2.609,2.591c1.601-0.002,3.2-0.092,4.611-0.27
			c-0.004-0.086-0.024-0.171-0.024-0.258c0-2.369,0.96-4.515,2.504-6.093c-1.235-1.223-2.891-2.262-4.795-2.744
			c1.684-1.13,2.846-3.353,2.846-5.359c0-2.831-2.3-5.124-5.147-5.124c-2.842,0-5.147,2.292-5.147,5.124
			c0,2.006,1.164,4.228,2.848,5.359c-4.033,1.02-7.02,4.502-7.02,7.084C17.311,39.769,21.967,40.526,26.626,40.522z M48.78,39.995
			c0,0.086-0.02,0.171-0.024,0.256c1.411,0.179,3.009,0.268,4.609,0.269l-2.609-2.591l2.198-5.287h-0.022l-0.854-0.975
			c0.413,0.148,0.841,0.239,1.289,0.239c0.446,0,0.874-0.089,1.287-0.237L53.8,32.643h-0.022l2.203,5.287l-2.611,2.591
			c4.661,0.004,9.315-0.752,9.315-2.282c0-2.583-2.989-6.066-7.019-7.084c1.687-1.129,2.847-3.353,2.847-5.359
			c0-2.831-2.304-5.124-5.145-5.124c-2.844,0-5.149,2.293-5.149,5.124c0,2.006,1.164,4.228,2.849,5.359
			c-1.904,0.482-3.559,1.521-4.794,2.744C47.819,35.478,48.78,37.624,48.78,39.995z M66.14,40.527l4.539,4.145H47.611
			c-0.276,0.551-0.59,1.088-0.955,1.587c0.889,0.448,1.715,0.991,2.496,1.582h23.422v-3.169L66.14,40.527z M33.343,46.256
			c-0.363-0.499-0.678-1.031-0.955-1.587H9.317l-1.892,3.169h23.422C31.626,47.251,32.453,46.706,33.343,46.256z M43.021,47.029
			c2.212-1.484,3.735-4.402,3.735-7.033c0-3.718-3.024-6.727-6.755-6.727c-3.734,0-6.755,3.01-6.755,6.727
			c0,2.631,1.523,5.549,3.736,7.033c-5.293,1.334-9.214,5.905-9.214,9.299c0,4.001,24.466,4.001,24.466,0
			C52.232,52.934,48.312,48.363,43.021,47.029z"/>
	</g>
</g>
</svg>
