<?xml version="1.0" encoding="utf-8"?>
<!-- Generator: Adobe Illustrator 19.0.0, SVG Export Plug-In . SVG Version: 6.00 Build 0)  -->
<svg version="1.1" id="Capa_1" xmlns="http://www.w3.org/2000/svg" xmlns:xlink="http://www.w3.org/1999/xlink" x="0px" y="0px"
	 viewBox="-265 356.9 80.1 80.1" style="enable-background:new -265 356.9 80.1 80.1;" xml:space="preserve">
<style type="text/css">
	.st0{fill:#45B6AF;}
</style>
<g>
	<g>
		<path class="st0" d="M-204.8,364.1c6,0,10.8,4.8,10.8,10.8c0,6-4.8,10.8-10.8,10.8c-1.4,0-2.8-0.3-4.1-0.8
			c-0.6-4.3-3.1-8.2-6.7-10.6C-215.3,368.7-210.6,364.2-204.8,364.1 M-245.1,364.2c6,0,10.8,4.8,10.8,10.8v0.2
			c-2.9,2.4-4.7,5.5-5.4,9.1c-1.8,1-3.6,1.4-5.4,1.4c-6,0-10.7-4.8-10.8-10.8C-255.9,369-251,364.2-245.1,364.2 M-224.4,376.4
			c6,0,10.8,4.8,10.8,10.8s-4.8,10.8-10.8,10.8c-6,0-10.8-4.8-10.8-10.8S-230.3,376.4-224.4,376.4 M-200,388.5
			c7.7,0,14,6.3,14.1,14.1v11.5l-0.3,0.2c-0.2,0.1-5.3,2.6-14.4,3.1v-2.7c0-7.9-4.8-14.7-12-17.5c2.1-2.5,3.4-5.5,3.7-8.7H-200
			 M-240.1,388.5c0.1,0,0.1,0,0.2,0c0.3,3.2,1.6,6.2,3.6,8.6c-7.2,2.8-12,9.7-12.1,17.5v2.6c-5.1-0.4-10.2-1.4-15.6-3.1l-0.1,0
			v-11.7c0-7.7,6.3-14,14-14H-240.1 M-219.5,400.8c7.8,0,14.1,6.3,14.1,14v11.5l-0.3,0.2c-0.7,0.3-6.9,3.3-17.5,3.3
			c-6.6,0-13.4-1.1-20.2-3.2l-0.1,0v-11.7c0-7.7,6.3-14,14-14H-219.5 M-204.9,363.1c-6.5,0.1-11.7,5.3-11.8,11.7
			c3.7,2.3,6.3,6.3,6.8,10.8c1.5,0.7,3.2,1.1,5,1.1c6.5,0,11.8-5.3,11.8-11.8S-198.4,363.1-204.9,363.1L-204.9,363.1z M-245.1,363.2
			c-6.5,0-11.8,5.3-11.8,11.8c0.1,6.6,5.3,11.8,11.8,11.8c2.3,0,4.4-0.7,6.3-1.8c0.6-3.8,2.6-7,5.5-9.3c0-0.2,0-0.4,0-0.7
			C-233.3,368.5-238.6,363.2-245.1,363.2L-245.1,363.2z M-224.4,375.4c-6.5,0-11.8,5.3-11.8,11.8s5.3,11.8,11.8,11.8
			s11.8-5.3,11.8-11.8S-217.9,375.4-224.4,375.4L-224.4,375.4z M-200,387.5h-9.9c-0.1,4-1.8,7.5-4.5,10.1c7.4,2.2,12.8,9,12.8,17.1
			v3.8c9.8-0.4,15.4-3.1,15.8-3.3l0.8-0.4h0.1v-12.2C-185,394.3-191.7,387.5-200,387.5L-200,387.5z M-240.1,387.5h-10
			c-8.3,0-15,6.8-15,15v12.2v0.2l0.8,0.3c6.4,2,12,2.9,16.9,3.2v-3.7c0.1-8.1,5.5-14.9,12.9-17.1c-2.7-2.6-4.3-6.1-4.5-10
			C-239.4,387.6-239.7,387.5-240.1,387.5L-240.1,387.5z M-219.5,399.8h-10c-8.3,0-15,6.8-15,15V427v0.2l0.8,0.3
			c7.9,2.5,14.8,3.3,20.5,3.3c11.1,0,17.5-3.2,17.9-3.4l0.8-0.4h0.1v-12.2C-204.4,406.4-211.2,399.8-219.5,399.8L-219.5,399.8z"/>
	</g>
</g>
</svg>
